<svg width="31" height="27" viewBox="0 0 31 27" fill="none" xmlns="http://www.w3.org/2000/svg">
<path d="M28.3188 7.77698L26.5967 6.48624V2.22438C26.6111 2.06761 26.59 1.90979 26.5346 1.7609C26.4793 1.61202 26.3909 1.47533 26.2751 1.35947C26.1593 1.24362 26.0186 1.15113 25.8619 1.08786C25.7052 1.02459 25.5358 0.991921 25.3647 0.991921C25.1935 0.991921 25.0242 1.02459 24.8675 1.08786C24.7108 1.15113 24.5701 1.24362 24.4543 1.35947C24.3384 1.47533 24.2501 1.61202 24.1947 1.7609C24.1394 1.90979 24.1182 2.06761 24.1327 2.22438V4.60291L19.6728 1.28271C18.5687 0.453167 17.1865 0 15.7605 0C14.3345 0 12.9523 0.453167 11.8482 1.28271L3.20225 7.77698C2.49532 8.30421 1.92545 8.96995 1.5343 9.72557C1.14315 10.4812 0.940582 11.3076 0.941409 12.1444V21.3175C0.941409 22.8246 1.59272 24.27 2.75207 25.3356C3.91142 26.4013 5.48383 27 7.1234 27H24.4065C26.046 27 27.6185 26.4013 28.7778 25.3356C29.9371 24.27 30.5885 22.8246 30.5885 21.3175V12.1119C30.583 11.2799 30.3765 10.4595 29.984 9.70981C29.5915 8.96013 29.0227 8.29996 28.3188 7.77698ZM12.0602 24.6864V16.8284C12.1066 15.9539 12.5172 15.1295 13.2069 14.5257C13.8966 13.9219 14.8125 13.5852 15.7649 13.5852C16.7174 13.5852 17.6333 13.9219 18.323 14.5257C19.0127 15.1295 19.4233 15.9539 19.4697 16.8284V24.6864H12.0602ZM28.1245 21.285C28.1222 22.1865 27.7316 23.0504 27.0381 23.6878C26.3447 24.3252 25.4048 24.6843 24.4241 24.6864H21.9425V16.8284C21.9425 15.3213 21.2912 13.8759 20.1318 12.8102C18.9725 11.7446 17.4001 11.1459 15.7605 11.1459C14.121 11.1459 12.5485 11.7446 11.3892 12.8102C10.2298 13.8759 9.57853 15.3213 9.57853 16.8284V24.6864H7.10574C6.12352 24.6864 5.18141 24.3283 4.48606 23.6907C3.7907 23.053 3.39888 22.1879 3.39654 21.285V12.1119C3.39596 11.6069 3.51771 11.1081 3.75295 10.6518C3.9882 10.1955 4.33104 9.79299 4.75658 9.47361L13.4025 2.97934C14.0646 2.48635 14.8908 2.21734 15.7429 2.21734C16.5949 2.21734 17.4211 2.48635 18.0832 2.97934L26.7291 9.47361C27.1612 9.78979 27.5107 10.1908 27.7521 10.6474C27.9936 11.1039 28.1208 11.6043 28.1245 12.1119V21.285Z" fill="#222222"/>
</svg>
