<svg width="23" height="20" viewBox="0 0 23 20" fill="none" xmlns="http://www.w3.org/2000/svg">
<path d="M20.0379 5.3125H10.6288C8.99544 5.3125 7.66667 4.12094 7.66667 2.65625C7.66667 1.19156 8.99544 0 10.6288 0H20.0379C21.6712 0 23 1.19156 23 2.65625C23 4.12094 21.6712 5.3125 20.0379 5.3125ZM10.6288 1.25C9.7642 1.25 9.06061 1.88094 9.06061 2.65625C9.06061 3.43156 9.7642 4.0625 10.6288 4.0625H20.0379C20.9025 4.0625 21.6061 3.43156 21.6061 2.65625C21.6061 1.88094 20.9025 1.25 20.0379 1.25H10.6288ZM20.0379 20H10.6288C8.99544 20 7.66667 18.8084 7.66667 17.3438C7.66667 15.8791 8.99544 14.6875 10.6288 14.6875H20.0379C21.6712 14.6875 23 15.8791 23 17.3438C23 18.8084 21.6712 20 20.0379 20ZM10.6288 15.9375C9.7642 15.9375 9.06061 16.5684 9.06061 17.3438C9.06061 18.1191 9.7642 18.75 10.6288 18.75H20.0379C20.9025 18.75 21.6061 18.1191 21.6061 17.3438C21.6061 16.5684 20.9025 15.9375 20.0379 15.9375H10.6288ZM20.0379 12.8125H10.6288C8.99544 12.8125 7.66667 11.6209 7.66667 10.1562C7.66667 8.69156 8.99544 7.5 10.6288 7.5H20.0379C21.6712 7.5 23 8.69156 23 10.1562C23 11.6209 21.6712 12.8125 20.0379 12.8125ZM10.6288 8.75C9.7642 8.75 9.06061 9.38094 9.06061 10.1562C9.06061 10.9316 9.7642 11.5625 10.6288 11.5625H20.0379C20.9025 11.5625 21.6061 10.9316 21.6061 10.1562C21.6061 9.38094 20.9025 8.75 20.0379 8.75H10.6288ZM3.31061 5.3125H2.96212C1.32877 5.3125 0 4.12094 0 2.65625C0 1.19156 1.32877 0 2.96212 0H3.31061C4.94395 0 6.27273 1.19156 6.27273 2.65625C6.27273 4.12094 4.94395 5.3125 3.31061 5.3125ZM2.96212 1.25C2.09753 1.25 1.39394 1.88094 1.39394 2.65625C1.39394 3.43156 2.09753 4.0625 2.96212 4.0625H3.31061C4.1752 4.0625 4.87879 3.43156 4.87879 2.65625C4.87879 1.88094 4.1752 1.25 3.31061 1.25H2.96212ZM3.31061 20H2.96212C1.32877 20 0 18.8084 0 17.3438C0 15.8791 1.32877 14.6875 2.96212 14.6875H3.31061C4.94395 14.6875 6.27273 15.8791 6.27273 17.3438C6.27273 18.8084 4.94395 20 3.31061 20ZM2.96212 15.9375C2.09753 15.9375 1.39394 16.5684 1.39394 17.3438C1.39394 18.1191 2.09753 18.75 2.96212 18.75H3.31061C4.1752 18.75 4.87879 18.1191 4.87879 17.3438C4.87879 16.5684 4.1752 15.9375 3.31061 15.9375H2.96212ZM3.31061 12.8125H2.96212C1.32877 12.8125 0 11.6209 0 10.1562C0 8.69156 1.32877 7.5 2.96212 7.5H3.31061C4.94395 7.5 6.27273 8.69156 6.27273 10.1562C6.27273 11.6209 4.94395 12.8125 3.31061 12.8125ZM2.96212 8.75C2.09753 8.75 1.39394 9.38094 1.39394 10.1562C1.39394 10.9316 2.09753 11.5625 2.96212 11.5625H3.31061C4.1752 11.5625 4.87879 10.9316 4.87879 10.1562C4.87879 9.38094 4.1752 8.75 3.31061 8.75H2.96212Z" fill="#222222"/>
</svg>
