<svg width="26" height="27" viewBox="0 0 26 27" fill="none" xmlns="http://www.w3.org/2000/svg">
<path d="M21.667 13.5C21.667 13.7984 21.5529 14.0845 21.3497 14.2955C21.1465 14.5065 20.871 14.625 20.5837 14.625H12.3612L14.8528 17.2012C14.9544 17.3058 15.035 17.4303 15.09 17.5674C15.145 17.7044 15.1733 17.8515 15.1733 18C15.1733 18.1485 15.145 18.2956 15.09 18.4326C15.035 18.5697 14.9544 18.6942 14.8528 18.7987C14.7521 18.9042 14.6323 18.9879 14.5003 19.045C14.3683 19.1021 14.2267 19.1315 14.0837 19.1315C13.9406 19.1315 13.799 19.1021 13.667 19.045C13.535 18.9879 13.4152 18.9042 13.3145 18.7987L8.98116 14.2987C8.88253 14.1918 8.80522 14.0656 8.75366 13.9275C8.64531 13.6536 8.64531 13.3464 8.75366 13.0725C8.80522 12.9344 8.88253 12.8082 8.98116 12.7013L13.3145 8.20125C13.4155 8.09636 13.5354 8.01315 13.6674 7.95638C13.7994 7.89962 13.9408 7.8704 14.0837 7.8704C14.2265 7.8704 14.368 7.89962 14.4999 7.95638C14.6319 8.01315 14.7518 8.09636 14.8528 8.20125C14.9538 8.30614 15.034 8.43067 15.0886 8.56772C15.1433 8.70477 15.1714 8.85166 15.1714 9C15.1714 9.14834 15.1433 9.29523 15.0886 9.43228C15.034 9.56933 14.9538 9.69386 14.8528 9.79875L12.3612 12.375H20.5837C20.871 12.375 21.1465 12.4935 21.3497 12.7045C21.5529 12.9155 21.667 13.2016 21.667 13.5ZM7.58366 2.25H18.417C19.2789 2.25 20.1056 2.60558 20.7151 3.23851C21.3246 3.87145 21.667 4.72989 21.667 5.625V9C21.667 9.29837 21.5529 9.58452 21.3497 9.79549C21.1465 10.0065 20.871 10.125 20.5837 10.125C20.2963 10.125 20.0208 10.0065 19.8176 9.79549C19.6145 9.58452 19.5003 9.29837 19.5003 9V5.625C19.5003 5.32663 19.3862 5.04048 19.183 4.82951C18.9799 4.61853 18.7043 4.5 18.417 4.5H7.58366C7.29634 4.5 7.02079 4.61853 6.81763 4.82951C6.61446 5.04048 6.50033 5.32663 6.50033 5.625V21.375C6.50033 21.6734 6.61446 21.9595 6.81763 22.1705C7.02079 22.3815 7.29634 22.5 7.58366 22.5H18.417C18.7043 22.5 18.9799 22.3815 19.183 22.1705C19.3862 21.9595 19.5003 21.6734 19.5003 21.375V18C19.5003 17.7016 19.6145 17.4155 19.8176 17.2045C20.0208 16.9935 20.2963 16.875 20.5837 16.875C20.871 16.875 21.1465 16.9935 21.3497 17.2045C21.5529 17.4155 21.667 17.7016 21.667 18V21.375C21.667 22.2701 21.3246 23.1286 20.7151 23.7615C20.1056 24.3944 19.2789 24.75 18.417 24.75H7.58366C6.72171 24.75 5.89506 24.3944 5.28556 23.7615C4.67607 23.1286 4.33366 22.2701 4.33366 21.375V5.625C4.33366 4.72989 4.67607 3.87145 5.28556 3.23851C5.89506 2.60558 6.72171 2.25 7.58366 2.25Z" fill="#E90000"/>
</svg>
