<svg width="31" height="32" viewBox="0 0 31 32" fill="none" xmlns="http://www.w3.org/2000/svg">
<path d="M15.4734 16.1296C14.3291 16.1309 13.2101 15.7927 12.258 15.1578C11.3059 14.523 10.5635 13.62 10.1247 12.5631C9.68593 11.5062 9.57048 10.3429 9.79297 9.22044C10.0155 8.09793 10.5659 7.06664 11.3746 6.25703C12.1834 5.44741 13.2141 4.89587 14.3363 4.67216C15.4586 4.44845 16.622 4.56264 17.6793 5.00027C18.7367 5.43791 19.6405 6.17932 20.2764 7.13072C20.9123 8.08212 21.2517 9.20075 21.2517 10.3451C21.25 11.8777 20.6409 13.3471 19.5578 14.4313C18.4747 15.5156 17.006 16.1263 15.4734 16.1296ZM15.4734 6.44899C14.7011 6.44775 13.9457 6.67573 13.303 7.10405C12.6603 7.53237 12.1592 8.14177 11.863 8.85509C11.5669 9.56842 11.4891 10.3536 11.6394 11.1111C11.7898 11.8687 12.1616 12.5646 12.7077 13.1108C13.2539 13.6569 13.9498 14.0287 14.7074 14.1791C15.4649 14.3294 16.2501 14.2516 16.9634 13.9555C17.6767 13.6594 18.2861 13.1582 18.7145 12.5155C19.1428 11.8728 19.3708 11.1174 19.3695 10.3451C19.3695 9.31179 18.959 8.3208 18.2284 7.59014C17.4977 6.85948 16.5067 6.44899 15.4734 6.44899ZM15.4734 31.049C12.0103 31.0458 8.64816 29.8816 5.92451 27.7427C5.82277 27.662 5.73857 27.5614 5.67708 27.4471C5.61558 27.3327 5.57809 27.207 5.56689 27.0776V26.7828C5.56689 25.481 5.8233 24.192 6.32146 22.9893C6.81963 21.7866 7.5498 20.6938 8.47028 19.7734C9.39077 18.8529 10.4835 18.1227 11.6862 17.6245C12.8889 17.1264 14.1779 16.87 15.4797 16.87C16.7815 16.87 18.0705 17.1264 19.2731 17.6245C20.4758 18.1227 21.5686 18.8529 22.4891 19.7734C23.4096 20.6938 24.1397 21.7866 24.6379 22.9893C25.1361 24.192 25.3925 25.481 25.3925 26.7828V27.0776C25.3813 27.207 25.3438 27.3327 25.2823 27.4471C25.2208 27.5614 25.1366 27.662 25.0349 27.7427C22.3078 29.8843 18.9409 31.0486 15.4734 31.049ZM7.44907 26.5381C9.77611 28.2455 12.5871 29.1662 15.4734 29.1662C18.3597 29.1662 21.1707 28.2455 23.4978 26.5381C23.4158 24.4648 22.5345 22.5037 21.0386 21.0658C19.5427 19.6279 17.5483 18.8248 15.4734 18.8248C13.3985 18.8248 11.4041 19.6279 9.90825 21.0658C8.41236 22.5037 7.53107 24.4648 7.44907 26.5381Z" fill="#222222"/>
<path d="M15.4733 31.0495C11.8158 31.0514 8.27595 29.757 5.48248 27.3961C2.68901 25.0352 0.822704 21.7606 0.214999 18.1539C-0.392706 14.5473 0.297527 10.8419 2.16312 7.69599C4.02871 4.55005 6.9489 2.16712 10.4051 0.970399C13.8613 -0.226322 17.6297 -0.159377 21.0412 1.15935C24.4527 2.47807 27.2865 4.96321 29.0391 8.17343C30.7918 11.3836 31.35 15.1112 30.6146 18.694C29.8792 22.2768 27.8977 25.483 25.0222 27.7432C22.2985 29.8822 18.9364 31.0463 15.4733 31.0495ZM15.4733 2.01386C12.651 2.01399 9.89895 2.89406 7.60028 4.53156C5.3016 6.16906 3.57066 8.48251 2.64841 11.1499C1.72616 13.8172 1.65849 16.7057 2.45482 19.4133C3.25114 22.121 4.87185 24.5129 7.09132 26.2563C9.09368 27.8277 11.4975 28.8046 14.0284 29.0755C16.5593 29.3464 19.1154 28.9004 21.405 27.7883C23.6946 26.6762 25.6255 24.9429 26.9772 22.7861C28.329 20.6293 29.0473 18.136 29.05 15.5906C29.045 11.9914 27.613 8.54096 25.068 5.9959C22.5229 3.45084 19.0725 2.01884 15.4733 2.01386Z" fill="#222222"/>
</svg>
