<svg width="24" height="27" viewBox="0 0 24 27" fill="none" xmlns="http://www.w3.org/2000/svg">
<path fill-rule="evenodd" clip-rule="evenodd" d="M11.9999 0C6.41086 0 1.84723 4.45469 1.84723 9.89952V13.5018C1.84723 16.2706 0.734042 18.6109 0.284145 19.4876C-0.619343 21.2518 0.746051 23.3941 2.76735 23.3941H7.47694C7.90559 25.4446 9.77723 27 12.0036 27C14.23 27 16.1017 25.4446 16.5303 23.3941H21.2399C23.2612 23.3941 24.6173 21.2482 23.7157 19.4876C23.2686 18.6145 22.1619 16.2715 22.1619 13.5018V9.89952C22.1619 4.45379 17.589 0 11.9999 0ZM11.9999 1.79304C16.582 1.79304 20.3198 5.43402 20.3198 9.89952V13.5018C20.3198 16.7332 21.578 19.3454 22.0658 20.2977C22.3891 20.9296 21.9632 21.6011 21.2399 21.6011H2.76735C2.03846 21.6011 1.61074 20.9323 1.93592 20.2986C2.42277 19.3472 3.68747 16.7341 3.68747 13.5018V9.89952C3.68747 5.43312 7.4169 1.79304 11.9999 1.79304ZM11.9999 3.59328C8.43401 3.59328 5.53509 6.42416 5.53509 9.89952C5.53509 10.1382 5.63242 10.3672 5.80567 10.536C5.97892 10.7048 6.21389 10.7996 6.4589 10.7996C6.70391 10.7996 6.93889 10.7048 7.11214 10.536C7.28538 10.3672 7.38271 10.1382 7.38271 9.89952C7.37842 9.30731 7.49488 8.72016 7.72533 8.17215C7.95578 7.62414 8.29562 7.12618 8.72516 6.70716C9.15469 6.28814 9.66535 5.95641 10.2275 5.73122C10.7897 5.50602 11.3921 5.39185 11.9999 5.39532C12.2452 5.39532 12.4804 5.30039 12.6538 5.13142C12.8272 4.96244 12.9247 4.73326 12.9247 4.4943C12.9247 4.25533 12.8272 4.02616 12.6538 3.85718C12.4804 3.68821 12.2452 3.59328 11.9999 3.59328ZM6.46075 12.5981C6.21574 12.5981 5.98077 12.6929 5.80752 12.8617C5.63427 13.0305 5.53694 13.2595 5.53694 13.4982C5.53694 13.7369 5.63427 13.9659 5.80752 14.1347C5.98077 14.3035 6.21574 14.3983 6.46075 14.3983C6.70576 14.3983 6.94074 14.3035 7.11398 14.1347C7.28723 13.9659 7.38456 13.7369 7.38456 13.4982C7.38456 13.2595 7.28723 13.0305 7.11398 12.8617C6.94074 12.6929 6.70576 12.5981 6.46075 12.5981ZM9.39847 23.3941H14.6088C14.4222 23.9223 14.0707 24.3804 13.6035 24.7042C13.1363 25.028 12.5769 25.2013 12.0036 25.1998C11.4303 25.2013 10.8709 25.028 10.4037 24.7042C9.93658 24.3804 9.58507 23.9223 9.39847 23.3941Z" fill="#A0A0A0"/>
</svg>
