<svg width="19" height="23" viewBox="0 0 19 23" fill="none" xmlns="http://www.w3.org/2000/svg">
<path fill-rule="evenodd" clip-rule="evenodd" d="M9.5 1.49351C7.38868 1.49351 5.73016 3.11336 5.73016 5.04805V6.87013H9.5H13.2698V5.04805C13.2698 3.11336 11.6113 1.49351 9.5 1.49351ZM4.22222 5.04805V6.87013H3.46825C1.55278 6.87013 0 8.40805 0 10.3052V19.5649C0 21.4621 1.55278 23 3.46825 23H15.5317C17.4472 23 19 21.4621 19 19.5649V14.9351V10.3052C19 8.40805 17.4472 6.87013 15.5317 6.87013H14.7778V5.04805C14.7778 2.23166 12.3855 0 9.5 0C6.61447 0 4.22222 2.23166 4.22222 5.04805ZM3.46825 8.36364C2.38559 8.36364 1.50794 9.23289 1.50794 10.3052V19.5649C1.50794 20.6372 2.38559 21.5065 3.46825 21.5065H15.5317C16.6144 21.5065 17.4921 20.6372 17.4921 19.5649V14.9351V10.3052C17.4921 9.23289 16.6144 8.36364 15.5317 8.36364H9.5H3.46825ZM8.74603 16.8766C8.74603 17.289 9.0836 17.6234 9.5 17.6234C9.9164 17.6234 10.254 17.289 10.254 16.8766V13.2922C10.254 12.8798 9.9164 12.5455 9.5 12.5455C9.0836 12.5455 8.74603 12.8798 8.74603 13.2922V16.8766Z" fill="#222222"/>
</svg>
