<svg width="50" height="50" viewBox="0 0 50 50" fill="none" xmlns="http://www.w3.org/2000/svg">
<path d="M22.392 8H9.608C9.21018 8 8.82864 8.15804 8.54734 8.43934C8.26604 8.72064 8.108 9.10218 8.108 9.5V22.5C8.108 22.8978 8.26604 23.2794 8.54734 23.5607C8.82864 23.842 9.21018 24 9.608 24H22.392C22.7898 24 23.1714 23.842 23.4527 23.5607C23.734 23.2794 23.892 22.8978 23.892 22.5V9.5C23.892 9.10218 23.734 8.72064 23.4527 8.43934C23.1714 8.15804 22.7898 8 22.392 8ZM20.892 21H11.108V11H20.892V21ZM18 14H14V18H18V14ZM2 20C2.53043 20 3.03914 19.7893 3.41421 19.4142C3.78929 19.0391 4 18.5304 4 18V6C4.00053 5.46973 4.21141 4.96133 4.58637 4.58637C4.96133 4.21141 5.46973 4.00053 6 4H18C18.5304 4 19.0391 3.78929 19.4142 3.41421C19.7893 3.03914 20 2.53043 20 2C20 1.46957 19.7893 0.960859 19.4142 0.585786C19.0391 0.210714 18.5304 0 18 0H6C4.40919 0.00158843 2.88399 0.63424 1.75911 1.75911C0.63424 2.88399 0.00158843 4.40919 0 6V18C0 18.5304 0.210714 19.0391 0.585786 19.4142C0.960859 19.7893 1.46957 20 2 20ZM22.392 26H9.608C9.21018 26 8.82864 26.158 8.54734 26.4393C8.26604 26.7206 8.108 27.1022 8.108 27.5V40.5C8.108 40.8978 8.26604 41.2794 8.54734 41.5607C8.82864 41.842 9.21018 42 9.608 42H22.392C22.7898 42 23.1714 41.842 23.4527 41.5607C23.734 41.2794 23.892 40.8978 23.892 40.5V27.5C23.892 27.1022 23.734 26.7206 23.4527 26.4393C23.1714 26.158 22.7898 26 22.392 26ZM20.892 39H11.108V29H20.892V39ZM18 32H14V36H18V32ZM18 46H6C5.46973 45.9995 4.96133 45.7886 4.58637 45.4136C4.21141 45.0387 4.00053 44.5303 4 44V32C4 31.4696 3.78929 30.9609 3.41421 30.5858C3.03914 30.2107 2.53043 30 2 30C1.46957 30 0.960859 30.2107 0.585786 30.5858C0.210714 30.9609 0 31.4696 0 32V44C0.00158843 45.5908 0.63424 47.116 1.75911 48.2409C2.88399 49.3658 4.40919 49.9984 6 50H18C18.5304 50 19.0391 49.7893 19.4142 49.4142C19.7893 49.0391 20 48.5304 20 48C20 47.4696 19.7893 46.9609 19.4142 46.5858C19.0391 46.2107 18.5304 46 18 46ZM48 30C47.4696 30 46.9609 30.2107 46.5858 30.5858C46.2107 30.9609 46 31.4696 46 32V44C45.9995 44.5303 45.7886 45.0387 45.4136 45.4136C45.0387 45.7886 44.5303 45.9995 44 46H32C31.4696 46 30.9609 46.2107 30.5858 46.5858C30.2107 46.9609 30 47.4696 30 48C30 48.5304 30.2107 49.0391 30.5858 49.4142C30.9609 49.7893 31.4696 50 32 50H44C45.5908 49.9984 47.116 49.3658 48.2409 48.2409C49.3658 47.116 49.9984 45.5908 50 44V32C50 31.4696 49.7893 30.9609 49.4142 30.5858C49.0391 30.2107 48.5304 30 48 30ZM31 37H27V41H31V37ZM27 30.988H31V26.988H27V30.988ZM44 0H32C31.4696 0 30.9609 0.210714 30.5858 0.585786C30.2107 0.960859 30 1.46957 30 2C30 2.53043 30.2107 3.03914 30.5858 3.41421C30.9609 3.78929 31.4696 4 32 4H44C44.5303 4.00053 45.0387 4.21141 45.4136 4.58637C45.7886 4.96133 45.9995 5.46973 46 6V18C46 18.5304 46.2107 19.0391 46.5858 19.4142C46.9609 19.7893 47.4696 20 48 20C48.5304 20 49.0391 19.7893 49.4142 19.4142C49.7893 19.0391 50 18.5304 50 18V6C49.9984 4.40919 49.3658 2.88399 48.2409 1.75911C47.116 0.63424 45.5908 0.00158843 44 0ZM32 18H36V14H32V18ZM36 36V32H32V36H36ZM40.392 24C40.7898 24 41.1714 23.842 41.4527 23.5607C41.734 23.2794 41.892 22.8978 41.892 22.5V9.5C41.892 9.10218 41.734 8.72064 41.4527 8.43934C41.1714 8.15804 40.7898 8 40.392 8H27.608C27.2102 8 26.8286 8.15804 26.5473 8.43934C26.266 8.72064 26.108 9.10218 26.108 9.5V22.5C26.108 22.8978 26.266 23.2794 26.5473 23.5607C26.8286 23.842 27.2102 24 27.608 24H40.392ZM29.108 11H38.892V21H29.108V11ZM41 26.988H37V30.988H41V26.988ZM37 41H41V37H37V41Z" fill="#222222"/>
</svg>
