<svg width="32" height="33" viewBox="0 0 32 33" fill="none" xmlns="http://www.w3.org/2000/svg">
<path d="M15.9727 17.1316C14.761 17.1328 13.5762 16.7946 12.5681 16.1598C11.56 15.5249 10.7739 14.6219 10.3093 13.5651C9.84473 12.5082 9.72249 11.3449 9.95807 10.2224C10.1936 9.09988 10.7765 8.06859 11.6328 7.25898C12.4891 6.44937 13.5804 5.89782 14.7687 5.67411C15.9569 5.4504 17.1888 5.56459 18.3083 6.00222C19.4279 6.43986 20.3848 7.18128 21.0581 8.13267C21.7314 9.08407 22.0908 10.2027 22.0908 11.347C22.0891 12.8796 21.4441 14.349 20.2973 15.4333C19.1505 16.5176 17.5954 17.1283 15.9727 17.1316ZM15.9727 7.45095C15.1549 7.44971 14.3551 7.67768 13.6746 8.106C12.9941 8.53432 12.4634 9.14373 12.1499 9.85705C11.8363 10.5704 11.7539 11.3555 11.9132 12.1131C12.0724 12.8707 12.466 13.5666 13.0443 14.1127C13.6226 14.6588 14.3594 15.0306 15.1615 15.181C15.9637 15.3314 16.795 15.2536 17.5503 14.9574C18.3056 14.6613 18.9508 14.1602 19.4043 13.5175C19.8579 12.8747 20.0992 12.1194 20.0979 11.347C20.0979 10.3137 19.6633 9.32275 18.8897 8.59209C18.116 7.86143 17.0667 7.45095 15.9727 7.45095ZM15.9727 32.051C12.3058 32.0477 8.74592 30.8836 5.86205 28.7446C5.75432 28.664 5.66517 28.5634 5.60006 28.449C5.53495 28.3347 5.49525 28.2089 5.4834 28.0796V27.7847C5.4834 26.4829 5.75488 25.1939 6.28235 23.9913C6.80982 22.7886 7.58294 21.6958 8.55758 20.7753C9.53221 19.8548 10.6893 19.1247 11.9627 18.6265C13.2361 18.1283 14.601 17.8719 15.9793 17.8719C17.3576 17.8719 18.7225 18.1283 19.9959 18.6265C21.2693 19.1247 22.4264 19.8548 23.401 20.7753C24.3756 21.6958 25.1488 22.7886 25.6762 23.9913C26.2037 25.1939 26.4752 26.4829 26.4752 27.7847V28.0796C26.4633 28.2089 26.4236 28.3347 26.3585 28.449C26.2934 28.5634 26.2043 28.664 26.0965 28.7446C23.2091 30.8862 19.6441 32.0505 15.9727 32.051ZM7.47629 27.54C9.94022 29.2475 12.9166 30.1682 15.9727 30.1682C19.0287 30.1682 22.0051 29.2475 24.469 27.54C24.3822 25.4667 23.4491 23.5057 21.8652 22.0678C20.2813 20.6299 18.1696 19.8268 15.9727 19.8268C13.7757 19.8268 11.664 20.6299 10.0801 22.0678C8.49625 23.5057 7.56312 25.4667 7.47629 27.54Z" fill="#21A54D"/>
<path d="M16.0083 32C12.2243 32.002 8.56212 30.6628 5.67206 28.2202C2.782 25.7776 0.851152 22.3898 0.222433 18.6584C-0.406286 14.9271 0.307815 11.0936 2.23791 7.83886C4.16801 4.58413 7.18918 2.1188 10.7649 0.880696C14.3406 -0.357409 18.2394 -0.288149 21.7688 1.07618C25.2983 2.4405 28.23 5.01158 30.0433 8.33281C31.8566 11.654 32.4341 15.5105 31.6732 19.2172C30.9123 22.9239 28.8624 26.2409 25.8874 28.5793C23.0696 30.7922 19.5912 31.9966 16.0083 32ZM16.0083 1.96024C13.0884 1.96038 10.2412 2.87088 7.86309 4.56501C5.48493 6.25913 3.69413 8.65258 2.73999 11.4122C1.78585 14.1718 1.71584 17.1602 2.5397 19.9614C3.36357 22.7627 5.04031 25.2373 7.33652 27.041C9.40813 28.6668 11.8951 29.6775 14.5135 29.9577C17.1319 30.238 19.7764 29.7765 22.1452 28.6259C24.5139 27.4754 26.5115 25.6821 27.9101 23.4508C29.3086 21.2194 30.0517 18.6399 30.0545 16.0065C30.0494 12.2828 28.5679 8.71305 25.9348 6.07998C23.3017 3.44692 19.732 1.96539 16.0083 1.96024Z" fill="#21A54D"/>
</svg>
