<svg width="28" height="27" viewBox="0 0 28 27" fill="none" xmlns="http://www.w3.org/2000/svg">
<path d="M25.8564 7.77698L24.23 6.48624V2.22438C24.2436 2.06761 24.2237 1.90979 24.1714 1.7609C24.1191 1.61202 24.0357 1.47533 23.9263 1.35947C23.8169 1.24362 23.684 1.15113 23.536 1.08786C23.388 1.02459 23.2281 0.991921 23.0664 0.991921C22.9048 0.991921 22.7449 1.02459 22.5969 1.08786C22.4489 1.15113 22.316 1.24362 22.2066 1.35947C22.0972 1.47533 22.0137 1.61202 21.9615 1.7609C21.9092 1.90979 21.8892 2.06761 21.9029 2.22438V4.60291L17.6908 1.28271C16.648 0.453167 15.3426 0 13.9958 0C12.649 0 11.3436 0.453167 10.3009 1.28271L2.13524 7.77698C1.46758 8.30421 0.929379 8.96995 0.559956 9.72557C0.190532 10.4812 -0.000778364 11.3076 2.38008e-06 12.1444V21.3175C2.38008e-06 22.8246 0.615133 24.27 1.71007 25.3356C2.80501 26.4013 4.29007 27 5.83855 27H22.1615C23.7099 27 25.195 26.4013 26.2899 25.3356C27.3849 24.27 28 22.8246 28 21.3175V12.1119C27.9948 11.2799 27.7998 10.4595 27.4291 9.70981C27.0584 8.96013 26.5212 8.29996 25.8564 7.77698ZM10.501 24.6864V16.8284C10.5449 15.9539 10.9327 15.1295 11.5841 14.5257C12.2355 13.9219 13.1005 13.5852 14 13.5852C14.8995 13.5852 15.7645 13.9219 16.4159 14.5257C17.0673 15.1295 17.4551 15.9539 17.499 16.8284V24.6864H10.501ZM25.6729 21.285C25.6707 22.1865 25.3018 23.0504 24.6469 23.6878C23.992 24.3252 23.1043 24.6843 22.1781 24.6864H19.8344V16.8284C19.8344 15.3213 19.2192 13.8759 18.1243 12.8102C17.0294 11.7446 15.5443 11.1459 13.9958 11.1459C12.4474 11.1459 10.9623 11.7446 9.86736 12.8102C8.77242 13.8759 8.15728 15.3213 8.15728 16.8284V24.6864H5.82187C4.89422 24.6864 4.00445 24.3283 3.34773 23.6907C2.691 23.053 2.32095 22.1879 2.31874 21.285V12.1119C2.31819 11.6069 2.43317 11.1081 2.65535 10.6518C2.87753 10.1955 3.20132 9.79299 3.60322 9.47361L11.7688 2.97934C12.3941 2.48635 13.1744 2.21734 13.9791 2.21734C14.7839 2.21734 15.5642 2.48635 16.1895 2.97934L24.3551 9.47361C24.7631 9.78979 25.0932 10.1908 25.3213 10.6474C25.5493 11.1039 25.6695 11.6043 25.6729 12.1119V21.285Z" fill="#21A54D"/>
</svg>
