<svg width="32" height="30" viewBox="0 0 32 30" fill="none" xmlns="http://www.w3.org/2000/svg">
<path d="M8.65581 17.0743C7.63559 17.0743 6.63828 16.7927 5.78999 16.265C4.94171 15.7374 4.28056 14.9874 3.89013 14.1099C3.49971 13.2324 3.39756 12.2669 3.5966 11.3353C3.79563 10.4038 4.28691 9.54814 5.00832 8.87655C5.72972 8.20495 6.64885 7.74759 7.64947 7.5623C8.65009 7.37701 9.68725 7.47211 10.6298 7.83557C11.5724 8.19903 12.378 8.81454 12.9448 9.60425C13.5116 10.394 13.8141 11.3224 13.8141 12.2722C13.8111 13.5449 13.2667 14.7647 12.3 15.6647C11.3332 16.5647 10.023 17.0715 8.65581 17.0743ZM8.65581 9.60432C8.08902 9.60432 7.53496 9.76079 7.06369 10.0539C6.59242 10.3471 6.22511 10.7637 6.00821 11.2512C5.79131 11.7387 5.73456 12.2751 5.84513 12.7927C5.95571 13.3102 6.22865 13.7855 6.62943 14.1587C7.03021 14.5318 7.54083 14.7859 8.09673 14.8888C8.65263 14.9917 9.22883 14.9389 9.75248 14.737C10.2761 14.535 10.7237 14.1931 11.0386 13.7544C11.3535 13.3156 11.5215 12.7998 11.5215 12.2722C11.5215 11.9218 11.4474 11.5749 11.3034 11.2512C11.1594 10.9276 10.9483 10.6335 10.6822 10.3857C10.4161 10.138 10.1002 9.94147 9.75248 9.8074C9.40479 9.67333 9.03214 9.60432 8.65581 9.60432ZM20.1188 11.7386C18.8718 11.7386 17.6529 11.3944 16.6161 10.7495C15.5793 10.1045 14.7712 9.18787 14.294 8.11539C13.8169 7.04292 13.692 5.8628 13.9353 4.72426C14.1785 3.58573 14.779 2.53992 15.6607 1.71908C16.5424 0.898245 17.6658 0.339248 18.8888 0.11278C20.1118 -0.113689 21.3794 0.00254309 22.5314 0.446777C23.6835 0.891011 24.6681 1.64329 25.3609 2.6085C26.0536 3.5737 26.4234 4.70847 26.4234 5.86931C26.4204 7.42508 25.7551 8.91632 24.5735 10.0164C23.3918 11.1165 21.7899 11.7358 20.1188 11.7386ZM20.1188 2.1343C19.3253 2.1343 18.5496 2.35335 17.8898 2.76376C17.23 3.17417 16.7158 3.7575 16.4121 4.43998C16.1085 5.12246 16.029 5.87345 16.1838 6.59797C16.3386 7.32249 16.7207 7.98801 17.2818 8.51036C17.8429 9.03271 18.5578 9.38844 19.3361 9.53255C20.1143 9.67667 20.921 9.6027 21.6541 9.32001C22.3872 9.03732 23.0138 8.55859 23.4546 7.94437C23.8955 7.33015 24.1308 6.60802 24.1308 5.86931C24.1308 4.87872 23.7081 3.92871 22.9557 3.22826C22.2033 2.5278 21.1828 2.1343 20.1188 2.1343ZM10.9484 29.8801H6.36322C4.69113 29.8801 3.08752 29.2617 1.90518 28.161C0.722829 27.0603 0.0585938 25.5674 0.0585938 24.0108C0.0585938 22.4542 0.722829 20.9613 1.90518 19.8606C3.08752 18.7599 4.69113 18.1415 6.36322 18.1415H10.9484C12.6205 18.1415 14.2241 18.7599 15.4064 19.8606C16.5888 20.9613 17.253 22.4542 17.253 24.0108C17.253 25.5674 16.5888 27.0603 15.4064 28.161C14.2241 29.2617 12.6205 29.8801 10.9484 29.8801ZM6.36322 20.2758C5.29916 20.2758 4.27868 20.6693 3.52628 21.3697C2.77388 22.0702 2.35118 23.0202 2.35118 24.0108C2.35118 25.0014 2.77388 25.9514 3.52628 26.6518C4.27868 27.3523 5.29916 27.7458 6.36322 27.7458H10.9484C12.0125 27.7458 13.0329 27.3523 13.7853 26.6518C14.5377 25.9514 14.9604 25.0014 14.9604 24.0108C14.9604 23.0202 14.5377 22.0702 13.7853 21.3697C13.0329 20.6693 12.0125 20.2758 10.9484 20.2758H6.36322Z" fill="#21A54D"/>
<path d="M23.3706 29.8794H11.7146C11.4202 29.8794 11.1378 29.7687 10.9296 29.5715C10.7214 29.3743 10.6045 29.1069 10.6045 28.8281C10.6045 28.5493 10.7214 28.2818 10.9296 28.0847C11.1378 27.8875 11.4202 27.7768 11.7146 27.7768H23.3706C24.9899 27.7768 26.5429 27.1675 27.6879 26.0831C28.8329 24.9987 29.4761 23.528 29.4761 21.9944C29.4761 20.4608 28.8329 18.9901 27.6879 17.9057C26.5429 16.8213 24.9899 16.212 23.3706 16.212H16.71C16.4156 16.212 16.1333 16.1013 15.9251 15.9041C15.7169 15.707 15.5999 15.4395 15.5999 15.1607C15.5999 14.8819 15.7169 14.6145 15.9251 14.4173C16.1333 14.2201 16.4156 14.1094 16.71 14.1094H23.3706C25.5787 14.1094 27.6964 14.9401 29.2578 16.4188C30.8192 17.8976 31.6963 19.9032 31.6963 21.9944C31.6963 24.0856 30.8192 26.0912 29.2578 27.57C27.6964 29.0487 25.5787 29.8794 23.3706 29.8794Z" fill="#21A54D"/>
</svg>
