<svg width="27" height="27" viewBox="0 0 27 27" fill="none" xmlns="http://www.w3.org/2000/svg">
<path d="M8.69641 8.75C8.69326 7.78252 8.36952 6.84336 7.77581 6.07946C7.1821 5.31555 6.35193 4.76999 5.41516 4.52813V1.09375C5.41516 0.803669 5.29992 0.52547 5.0948 0.320352C4.88969 0.115234 4.61149 0 4.32141 0C4.03133 0 3.75313 0.115234 3.54801 0.320352C3.34289 0.52547 3.22766 0.803669 3.22766 1.09375V4.52813C2.30085 4.78 1.48267 5.32985 0.899352 6.09284C0.316037 6.85583 0 7.78957 0 8.75C0 9.71043 0.316037 10.6442 0.899352 11.4072C1.48267 12.1702 2.30085 12.72 3.22766 12.9719V25.1562C3.22766 25.4463 3.34289 25.7245 3.54801 25.9296C3.75313 26.1348 4.03133 26.25 4.32141 26.25C4.61149 26.25 4.88969 26.1348 5.0948 25.9296C5.29992 25.7245 5.41516 25.4463 5.41516 25.1562V12.9719C6.35193 12.73 7.1821 12.1844 7.77581 11.4205C8.36952 10.6566 8.69326 9.71749 8.69641 8.75ZM4.32141 10.9375C3.88876 10.9375 3.46583 10.8092 3.1061 10.5688C2.74636 10.3285 2.46599 9.98683 2.30042 9.58712C2.13485 9.18741 2.09153 8.74757 2.17594 8.32324C2.26034 7.89891 2.46868 7.50913 2.77461 7.2032C3.08054 6.89728 3.47031 6.68894 3.89465 6.60453C4.31898 6.52013 4.75881 6.56345 5.15853 6.72901C5.55824 6.89458 5.89988 7.17496 6.14025 7.53469C6.38061 7.89442 6.50891 8.31735 6.50891 8.75C6.50891 9.33016 6.27844 9.88656 5.8682 10.2968C5.45797 10.707 4.90157 10.9375 4.32141 10.9375ZM14.1652 15.4656V1.09375C14.1652 0.803669 14.0499 0.52547 13.8448 0.320352C13.6397 0.115234 13.3615 0 13.0714 0C12.7813 0 12.5031 0.115234 12.298 0.320352C12.0929 0.52547 11.9777 0.803669 11.9777 1.09375V15.4656C11.0508 15.7175 10.2327 16.2673 9.64935 17.0303C9.06604 17.7933 8.75 18.7271 8.75 19.6875C8.75 20.6479 9.06604 21.5817 9.64935 22.3447C10.2327 23.1077 11.0508 23.6575 11.9777 23.9094V25.1562C11.9777 25.4463 12.0929 25.7245 12.298 25.9296C12.5031 26.1348 12.7813 26.25 13.0714 26.25C13.3615 26.25 13.6397 26.1348 13.8448 25.9296C14.0499 25.7245 14.1652 25.4463 14.1652 25.1562V23.9094C15.092 23.6575 15.9101 23.1077 16.4935 22.3447C17.0768 21.5817 17.3928 20.6479 17.3928 19.6875C17.3928 18.7271 17.0768 17.7933 16.4935 17.0303C15.9101 16.2673 15.092 15.7175 14.1652 15.4656ZM13.0714 21.875C12.6388 21.875 12.2158 21.7467 11.8561 21.5063C11.4964 21.266 11.216 20.9243 11.0504 20.5246C10.8849 20.1249 10.8415 19.6851 10.9259 19.2607C11.0103 18.8364 11.2187 18.4466 11.5246 18.1407C11.8305 17.8348 12.2203 17.6264 12.6446 17.542C13.069 17.4576 13.5088 17.5009 13.9085 17.6665C14.3082 17.8321 14.6499 18.1125 14.8902 18.4722C15.1306 18.8319 15.2589 19.2549 15.2589 19.6875C15.2589 20.2677 15.0284 20.8241 14.6182 21.2343C14.208 21.6445 13.6516 21.875 13.0714 21.875ZM26.1964 6.5625C26.1933 5.59502 25.8695 4.65586 25.2758 3.89196C24.6821 3.12805 23.8519 2.58249 22.9152 2.34062V1.09375C22.9152 0.803669 22.7999 0.52547 22.5948 0.320352C22.3897 0.115234 22.1115 0 21.8214 0C21.5313 0 21.2531 0.115234 21.048 0.320352C20.8429 0.52547 20.7277 0.803669 20.7277 1.09375V2.34062C19.8008 2.5925 18.9827 3.14235 18.3994 3.90534C17.816 4.66833 17.5 5.60207 17.5 6.5625C17.5 7.52293 17.816 8.45667 18.3994 9.21966C18.9827 9.98265 19.8008 10.5325 20.7277 10.7844V25.1562C20.7277 25.4463 20.8429 25.7245 21.048 25.9296C21.2531 26.1348 21.5313 26.25 21.8214 26.25C22.1115 26.25 22.3897 26.1348 22.5948 25.9296C22.7999 25.7245 22.9152 25.4463 22.9152 25.1562V10.7844C23.8519 10.5425 24.6821 9.99695 25.2758 9.23304C25.8695 8.46914 26.1933 7.52998 26.1964 6.5625ZM21.8214 8.75C21.3888 8.75 20.9658 8.62171 20.6061 8.38134C20.2464 8.14097 19.966 7.79933 19.8004 7.39962C19.6349 6.99991 19.5915 6.56007 19.6759 6.13574C19.7603 5.71141 19.9687 5.32163 20.2746 5.0157C20.5805 4.70978 20.9703 4.50144 21.3946 4.41703C21.819 4.33263 22.2588 4.37595 22.6585 4.54151C23.0582 4.70708 23.3999 4.98746 23.6402 5.34719C23.8806 5.70692 24.0089 6.12985 24.0089 6.5625C24.0089 7.14266 23.7784 7.69906 23.3682 8.1093C22.958 8.51953 22.4016 8.75 21.8214 8.75Z" fill="#21A54D"/>
</svg>
