<svg width="30" height="30" viewBox="0 0 30 30" fill="none" xmlns="http://www.w3.org/2000/svg">
<path d="M8.11959 17.0743C7.15605 17.0743 6.21415 16.7927 5.41299 16.265C4.61183 15.7374 3.98741 14.9874 3.61868 14.1099C3.24995 13.2324 3.15347 12.2669 3.34145 11.3353C3.52942 10.4038 3.99341 9.54814 4.67474 8.87655C5.35607 8.20495 6.22413 7.74759 7.16916 7.5623C8.11419 7.37701 9.09374 7.47211 9.98393 7.83557C10.8741 8.19903 11.635 8.81454 12.1703 9.60425C12.7056 10.394 12.9913 11.3224 12.9913 12.2722C12.9885 13.5449 12.4743 14.7647 11.5613 15.6647C10.6483 16.5647 9.41078 17.0715 8.11959 17.0743ZM8.11959 9.60432C7.58429 9.60432 7.06101 9.76079 6.61592 10.0539C6.17084 10.3471 5.82393 10.7638 5.61908 11.2512C5.41423 11.7387 5.36063 12.2751 5.46507 12.7927C5.5695 13.3102 5.82727 13.7855 6.20579 14.1587C6.5843 14.5318 7.06656 14.7859 7.59157 14.8888C8.11659 14.9917 8.66078 14.9389 9.15534 14.737C9.64989 14.535 10.0726 14.1931 10.37 13.7544C10.6674 13.3156 10.8261 12.7998 10.8261 12.2722C10.8261 11.9218 10.7561 11.5749 10.6201 11.2512C10.4841 10.9276 10.2847 10.6335 10.0334 10.3857C9.78207 10.138 9.48371 9.94147 9.15534 9.8074C8.82697 9.67333 8.47502 9.60432 8.11959 9.60432ZM18.9457 11.7386C17.7681 11.7386 16.6168 11.3944 15.6376 10.7495C14.6585 10.1045 13.8953 9.18787 13.4446 8.11539C12.9939 7.04292 12.876 5.8628 13.1058 4.72426C13.3355 3.58573 13.9026 2.53992 14.7353 1.71908C15.5681 0.898245 16.629 0.339248 17.7841 0.11278C18.9391 -0.113689 20.1363 0.0025431 21.2244 0.446777C22.3124 0.891011 23.2423 1.64329 23.8966 2.6085C24.5509 3.5737 24.9001 4.70847 24.9001 5.86931C24.8972 7.42508 24.269 8.91632 23.1529 10.0164C22.0369 11.1165 20.524 11.7358 18.9457 11.7386ZM18.9457 2.1343C18.1963 2.1343 17.4637 2.35335 16.8406 2.76376C16.2175 3.17417 15.7318 3.7575 15.445 4.43998C15.1582 5.12246 15.0832 5.87345 15.2294 6.59797C15.3756 7.32249 15.7365 7.98801 16.2664 8.51036C16.7963 9.03271 17.4715 9.38844 18.2065 9.53255C18.9415 9.67667 19.7034 9.6027 20.3958 9.32001C21.0881 9.03732 21.6799 8.55859 22.0963 7.94437C22.5126 7.33015 22.7349 6.60802 22.7349 5.86931C22.7349 4.87872 22.3356 3.92871 21.625 3.22826C20.9144 2.5278 19.9507 2.1343 18.9457 2.1343ZM10.2848 29.8801H5.95437C4.37517 29.8801 2.86065 29.2617 1.74399 28.161C0.627334 27.0603 0 25.5674 0 24.0108C0 22.4542 0.627334 20.9613 1.74399 19.8606C2.86065 18.7599 4.37517 18.1415 5.95437 18.1415H10.2848C11.864 18.1415 13.3785 18.7599 14.4952 19.8606C15.6119 20.9613 16.2392 22.4542 16.2392 24.0108C16.2392 25.5674 15.6119 27.0603 14.4952 28.161C13.3785 29.2617 11.864 29.8801 10.2848 29.8801ZM5.95437 20.2758C4.94942 20.2758 3.98564 20.6693 3.27504 21.3697C2.56444 22.0702 2.16522 23.0202 2.16522 24.0108C2.16522 25.0014 2.56444 25.9514 3.27504 26.6518C3.98564 27.3523 4.94942 27.7458 5.95437 27.7458H10.2848C11.2898 27.7458 12.2535 27.3523 12.9641 26.6518C13.6747 25.9514 14.074 25.0014 14.074 24.0108C14.074 23.0202 13.6747 22.0702 12.9641 21.3697C12.2535 20.6693 11.2898 20.2758 10.2848 20.2758H5.95437Z" fill="#222222"/>
<path d="M22.0168 29.8794H11.0084C10.7303 29.8794 10.4637 29.7687 10.267 29.5715C10.0704 29.3743 9.95996 29.1069 9.95996 28.8281C9.95996 28.5493 10.0704 28.2818 10.267 28.0847C10.4637 27.8875 10.7303 27.7768 11.0084 27.7768H22.0168C23.5462 27.7768 25.0129 27.1675 26.0943 26.0831C27.1757 24.9987 27.7832 23.528 27.7832 21.9944C27.7832 20.4608 27.1757 18.9901 26.0943 17.9057C25.0129 16.8213 23.5462 16.212 22.0168 16.212H15.7263C15.4482 16.212 15.1816 16.1013 14.9849 15.9041C14.7883 15.707 14.6779 15.4395 14.6779 15.1607C14.6779 14.8819 14.7883 14.6145 14.9849 14.4173C15.1816 14.2201 15.4482 14.1094 15.7263 14.1094H22.0168C24.1023 14.1094 26.1023 14.9401 27.577 16.4188C29.0516 17.8976 29.88 19.9032 29.88 21.9944C29.88 24.0856 29.0516 26.0912 27.577 27.57C26.1023 29.0487 24.1023 29.8794 22.0168 29.8794Z" fill="#222222"/>
</svg>
