<svg width="38" height="38" viewBox="0 0 38 38" fill="none" xmlns="http://www.w3.org/2000/svg">
<g clip-path="url(#clip0_3915_1209)">
<path d="M19 38C29.4934 38 38 29.4934 38 19C38 8.50659 29.4934 0 19 0C8.50659 0 0 8.50659 0 19C0 29.4934 8.50659 38 19 38Z" fill="url(#paint0_linear_3915_1209)"/>
<path d="M7.07599 19.9303C9.29709 18.7069 11.7764 17.6858 14.093 16.6595C18.0784 14.9784 22.0797 13.3266 26.1213 11.7887C26.9076 11.5266 28.3205 11.2704 28.4591 12.4358C28.3831 14.0853 28.0711 15.7251 27.8571 17.365C27.3138 20.9712 26.6857 24.5651 26.0735 28.1594C25.8624 29.3565 24.3627 29.9764 23.403 29.2102C21.0967 27.6522 18.7727 26.1098 16.4959 24.5157C15.7501 23.7579 16.4417 22.6695 17.1077 22.1283C19.0072 20.2563 21.0217 18.6659 22.8219 16.6972C23.3075 15.5245 21.8727 16.5129 21.3995 16.8157C18.799 18.6078 16.2622 20.5092 13.5205 22.0841C12.12 22.8551 10.4878 22.1962 9.08793 21.7659C7.83282 21.2464 5.99363 20.7228 7.07583 19.9305L7.07599 19.9303Z" fill="white"/>
</g>
<defs>
<linearGradient id="paint0_linear_3915_1209" x1="25.3349" y1="6.3346" x2="15.8349" y2="28.5" gradientUnits="userSpaceOnUse">
<stop stop-color="#37AEE2"/>
<stop offset="1" stop-color="#1E96C8"/>
</linearGradient>
<clipPath id="clip0_3915_1209">
<rect width="38" height="38" fill="white"/>
</clipPath>
</defs>
</svg>
