<svg width="28" height="28" viewBox="0 0 28 28" fill="none" xmlns="http://www.w3.org/2000/svg">
<g clip-path="url(#clip0_3805_2471)">
<path d="M3.70996 14.0009C3.70996 11.1594 4.85012 8.58693 6.6935 6.72481C8.53689 4.86269 11.0835 3.71094 13.8964 3.71094C16.5894 3.71094 19.0383 4.76657 20.8597 6.49055" stroke="#222222" stroke-width="1.26" stroke-linecap="round" stroke-linejoin="round"/>
<path d="M24.2894 14C24.2894 16.8415 23.1492 19.414 21.3058 21.2761C19.4625 23.1383 16.9159 24.29 14.1029 24.29C11.41 24.29 8.96108 23.2343 7.13965 21.5104" stroke="#222222" stroke-width="1.26" stroke-linecap="round" stroke-linejoin="round"/>
<path d="M19.1841 8.61762C19.0245 8.86756 19.1467 9.19234 19.4307 9.2776C20.8766 9.71183 22.7874 9.93875 23.7238 10.0303C24.0217 10.0595 24.268 9.81302 24.2369 9.51525C24.1426 8.61262 23.9138 6.7894 23.4799 5.24581C23.3977 4.95331 23.0654 4.82137 22.8097 4.98552C21.4795 5.83955 20.0327 7.28849 19.1841 8.61762Z" stroke="#222222" stroke-width="1.26" stroke-linecap="round" stroke-linejoin="round"/>
<path d="M8.81621 19.3838C8.97581 19.1339 8.8536 18.8091 8.5696 18.7238C7.12366 18.2896 5.21284 18.0627 4.27655 17.9711C3.97856 17.942 3.73229 18.1884 3.7634 18.4862C3.85771 19.3888 4.08649 21.212 4.52034 22.7556C4.60255 23.0481 4.93487 23.1801 5.19055 23.0159C6.52076 22.1619 7.96753 20.7129 8.81621 19.3838Z" stroke="#222222" stroke-width="1.26" stroke-linecap="round" stroke-linejoin="round"/>
<path d="M16.9396 11.1137C16.9396 11.1137 15.7636 10.3262 13.9996 10.3262C12.5296 10.3262 11.0596 11.1137 11.0596 12.1637C11.0596 14.7887 16.9396 13.2137 16.9396 15.8387C16.9396 16.8887 15.4696 17.6762 13.9996 17.6762C12.2356 17.6762 11.0596 16.8887 11.0596 16.8887" stroke="#222222" stroke-width="1.26" stroke-linecap="round" stroke-linejoin="round"/>
<path d="M14.0001 10.3266L14 9.10156" stroke="#222222" stroke-width="1.26" stroke-linecap="round" stroke-linejoin="round"/>
<path d="M14 18.9008L14 17.6758" stroke="#222222" stroke-width="1.26" stroke-linecap="round" stroke-linejoin="round"/>
</g>
<defs>
<clipPath id="clip0_3805_2471">
<rect width="28" height="28" fill="white"/>
</clipPath>
</defs>
</svg>
