<svg width="38" height="38" viewBox="0 0 38 38" fill="none" xmlns="http://www.w3.org/2000/svg">
<g clip-path="url(#clip0_3915_1212)">
<path d="M32.4622 5.52218C28.89 1.96323 24.14 0.0021714 19.0792 0C8.65072 0 0.16399 8.44669 0.159815 18.8289C0.1586 22.1476 1.02957 25.3871 2.68504 28.2427L0.000976562 38L10.0304 35.3817C12.7937 36.8821 15.905 37.6727 19.0711 37.674H19.0792H19.0792C29.5061 37.674 37.9941 29.2258 37.9985 18.8441C38.0003 13.8124 36.034 9.08138 32.4622 5.52218ZM19.0792 34.4937H19.0731C16.251 34.4922 13.4835 33.7379 11.0695 32.3118L10.4951 31.9727L4.5434 33.5263L6.13241 27.7511L5.75812 27.1591C4.18391 24.667 3.35286 21.7872 3.35404 18.8301C3.3575 10.2007 10.4113 3.18039 19.0852 3.18039C23.2855 3.18212 27.2334 4.81216 30.2025 7.77026C33.1714 10.7283 34.8053 14.6607 34.804 18.8428C34.8003 27.4724 27.7462 34.4937 19.0792 34.4937Z" fill="#E0E0E0"/>
<path d="M0.870117 36.9177L3.43157 27.6061C1.85132 24.8809 1.02029 21.7891 1.02129 18.6226C1.02544 8.71491 9.12457 0.654297 19.0759 0.654297C23.9057 0.656468 28.4388 2.52784 31.8471 5.92432C35.2561 9.32076 37.1324 13.8354 37.1304 18.6367C37.1263 28.5447 29.0266 36.606 19.0766 36.606C19.0759 36.606 19.0771 36.606 19.0766 36.606H19.0685C16.047 36.605 13.0781 35.8499 10.4412 34.4191L0.870117 36.9177Z" fill="url(#paint0_linear_3915_1212)"/>
<path fill-rule="evenodd" clip-rule="evenodd" d="M14.404 10.8343C14.054 10.0595 13.6855 10.044 13.3525 10.0305C13.0801 10.0188 12.7683 10.0195 12.457 10.0195C12.1454 10.0195 11.6391 10.1361 11.2109 10.6017C10.7825 11.0672 9.5752 12.1926 9.5752 14.4816C9.5752 16.7708 11.2499 18.9826 11.4833 19.2933C11.717 19.6035 14.7161 24.4509 19.4659 26.3157C23.4133 27.8655 24.2166 27.5572 25.0734 27.4797C25.9302 27.4021 27.8381 26.3545 28.2276 25.268C28.617 24.1818 28.617 23.2508 28.5002 23.0562C28.3834 22.8623 28.0718 22.746 27.6044 22.5133C27.1371 22.2807 24.8397 21.155 24.4113 20.9999C23.9829 20.8448 23.6714 20.7672 23.3598 21.233C23.0482 21.6983 22.1532 22.746 21.8805 23.0562C21.6079 23.3671 21.3353 23.4058 20.8679 23.1732C20.4006 22.9398 18.8955 22.4491 17.1101 20.8641C15.7209 19.6311 14.783 18.1082 14.5104 17.6424C14.2378 17.1771 14.4812 16.9251 14.7156 16.6932C14.9254 16.4847 15.183 16.1501 15.4167 15.8784C15.6498 15.6067 15.7277 15.4128 15.8835 15.1026C16.0393 14.7919 15.9614 14.5203 15.8446 14.2876C15.7277 14.055 14.8196 11.7542 14.404 10.8343Z" fill="white"/>
<path d="M32.3084 5.46271C28.7771 1.94461 24.0817 0.00610867 19.079 0.00390625C8.77017 0.00390625 0.380871 8.35362 0.376727 18.6166C0.375512 21.8973 1.23648 25.0996 2.87294 27.9224L0.219727 37.5677L10.134 34.9794C12.8656 36.4626 15.9412 37.2441 19.071 37.2453H19.0789H19.079C29.3862 37.2453 37.7767 28.8942 37.7811 18.6316C37.7828 13.6578 35.8391 8.98106 32.3084 5.46271ZM19.079 34.1017H19.0729C16.2832 34.1002 13.5474 33.3545 11.1612 31.9448L10.5933 31.6097L4.70999 33.1454L6.28075 27.4365L5.91076 26.8513C4.35462 24.3878 3.5331 21.541 3.53431 18.6179C3.53771 10.0876 10.5106 3.14785 19.0849 3.14785C23.2371 3.14955 27.1395 4.76089 30.0746 7.68502C33.0094 10.6091 34.6245 14.4963 34.6233 18.6305C34.6196 27.161 27.6465 34.1017 19.079 34.1017Z" fill="white"/>
</g>
<defs>
<linearGradient id="paint0_linear_3915_1212" x1="19.0003" y1="36.9177" x2="19.0003" y2="0.654357" gradientUnits="userSpaceOnUse">
<stop stop-color="#20B038"/>
<stop offset="1" stop-color="#60D66A"/>
</linearGradient>
<clipPath id="clip0_3915_1212">
<rect width="38" height="38" fill="white"/>
</clipPath>
</defs>
</svg>
