<svg width="22" height="25" viewBox="0 0 22 25" fill="none" xmlns="http://www.w3.org/2000/svg">
<path fill-rule="evenodd" clip-rule="evenodd" d="M11.3541 0.145508C6.42652 0.145508 2.40302 4.17634 2.40302 9.10309V12.3626C2.40302 14.8679 1.42158 16.9856 1.02493 17.7789C0.228374 19.3752 1.43217 21.3137 3.21423 21.3137H7.36642C7.74434 23.1691 9.39446 24.5765 11.3573 24.5765C13.3202 24.5765 14.9703 23.1691 15.3483 21.3137H19.5005C21.2825 21.3137 22.4782 19.372 21.6832 17.7789C21.289 16.9888 20.3133 14.8688 20.3133 12.3626V9.10309C20.3133 4.17552 16.2817 0.145508 11.3541 0.145508ZM11.3541 1.76794C15.3939 1.76794 18.6892 5.06249 18.6892 9.10309V12.3626C18.6892 15.2866 19.7985 17.6502 20.2286 18.5119C20.5137 19.0837 20.1382 19.6913 19.5005 19.6913H3.21423C2.57161 19.6913 2.19451 19.0861 2.48121 18.5127C2.91044 17.6518 4.02545 15.2874 4.02545 12.3626V9.10309C4.02545 5.06167 7.31348 1.76794 11.3541 1.76794ZM11.3541 3.39689C8.21022 3.39689 5.6544 5.95841 5.6544 9.10309C5.6544 9.3191 5.74021 9.52627 5.89295 9.67901C6.0457 9.83175 6.25286 9.91756 6.46887 9.91756C6.68488 9.91756 6.89205 9.83175 7.04479 9.67901C7.19754 9.52627 7.28335 9.3191 7.28335 9.10309C7.27956 8.56723 7.38224 8.03595 7.58541 7.54008C7.78858 7.04422 8.08821 6.59363 8.4669 6.21449C8.8456 5.83534 9.29582 5.53517 9.79144 5.3314C10.2871 5.12763 10.8182 5.02432 11.3541 5.02746C11.5703 5.02746 11.7777 4.94157 11.9306 4.78867C12.0835 4.63578 12.1694 4.4284 12.1694 4.21218C12.1694 3.99595 12.0835 3.78858 11.9306 3.63568C11.7777 3.48278 11.5703 3.39689 11.3541 3.39689ZM6.4705 11.5449C6.25449 11.5449 6.04732 11.6307 5.89458 11.7834C5.74184 11.9362 5.65603 12.1433 5.65603 12.3594C5.65603 12.5754 5.74184 12.7825 5.89458 12.9353C6.04732 13.088 6.25449 13.1738 6.4705 13.1738C6.68651 13.1738 6.89368 13.088 7.04642 12.9353C7.19916 12.7825 7.28497 12.5754 7.28497 12.3594C7.28497 12.1433 7.19916 11.9362 7.04642 11.7834C6.89368 11.6307 6.68651 11.5449 6.4705 11.5449ZM9.06053 21.3137H13.6542C13.4896 21.7916 13.1797 22.2061 12.7679 22.4991C12.356 22.7921 11.8628 22.9489 11.3573 22.9475C10.8519 22.9489 10.3587 22.7921 9.94682 22.4991C9.53494 22.2061 9.22504 21.7916 9.06053 21.3137Z" fill="white"/>
</svg>
